<?xml version="1.0" standalone="no"?>
<!DOCTYPE svg PUBLIC "-//W3C//DTD SVG 20010904//EN"
 "http://www.w3.org/TR/2001/REC-SVG-20010904/DTD/svg10.dtd">
<svg version="1.0" xmlns="http://www.w3.org/2000/svg"
 width="428.000000pt" height="428.000000pt" viewBox="0 0 428.000000 428.000000"
 preserveAspectRatio="xMidYMid meet">
<metadata>
Created by potrace 1.14, written by Peter Selinger 2001-2017
</metadata>
<g transform="translate(0.000000,428.000000) scale(0.100000,-0.100000)"
fill="#000000" stroke="none">
<path d="M2160 3751 c-64 -28 -124 -59 -269 -140 -41 -22 -81 -41 -90 -41 -24
0 -119 -107 -150 -169 -83 -167 -120 -545 -65 -669 4 -9 6 -21 5 -26 -1 -4 4
-15 10 -22 9 -11 9 -18 1 -26 -16 -16 -15 -28 1 -28 11 0 16 -29 22 -112 4
-62 9 -126 10 -143 1 -16 7 -41 12 -55 15 -35 43 -154 43 -178 0 -31 33 -126
47 -135 7 -4 9 -15 6 -24 -4 -11 -2 -14 8 -11 8 3 26 -11 41 -31 15 -20 33
-42 38 -49 6 -7 9 -16 6 -20 -3 -5 4 -14 14 -22 10 -8 17 -17 14 -21 -2 -4 5
-10 16 -14 11 -3 20 -15 20 -26 0 -12 7 -19 19 -19 11 0 27 -13 37 -29 15 -25
26 -30 88 -40 194 -32 197 -32 185 -47 -9 -12 -5 -14 24 -14 45 0 96 22 126
54 26 28 102 76 120 76 5 0 12 -15 14 -32 l4 -33 2 35 c3 33 4 33 11 10 6 -17
8 0 9 56 1 109 18 192 46 234 13 19 31 53 40 75 9 22 25 47 34 55 27 23 45
122 46 255 l1 120 29 0 c26 0 30 4 33 33 2 18 -1 32 -7 32 -6 0 -11 -4 -11 -9
0 -5 -6 -11 -13 -14 -14 -5 -14 -7 -7 217 2 47 11 103 22 135 16 44 18 69 13
126 -8 87 -18 121 -61 211 -33 70 -156 223 -194 244 -11 6 -38 34 -61 63 -66
85 -152 169 -186 183 -39 17 -25 19 -103 -15z m-75 -80 c-3 -6 -11 -11 -17
-11 -6 0 -6 6 2 15 14 17 26 13 15 -4z m228 -456 c56 -21 97 -44 110 -61 31
-39 67 -106 67 -126 0 -9 14 -32 31 -50 16 -18 42 -55 56 -81 16 -28 32 -46
39 -43 8 3 11 -1 7 -10 -3 -7 0 -14 6 -14 6 0 11 8 11 18 1 12 6 8 18 -13 14
-25 18 -65 20 -244 l3 -214 -25 7 c-19 5 -29 1 -40 -15 -13 -19 -13 -25 -1
-43 21 -29 18 -39 -9 -32 -19 5 -28 0 -43 -22 -78 -121 -87 -132 -96 -123 -7
7 -4 37 8 90 18 79 18 79 -3 106 -12 15 -43 41 -69 57 -57 36 -66 48 -51 66
27 31 -64 56 -106 28 -35 -22 -59 -20 -86 8 -25 28 -69 41 -100 31 -27 -8 -25
-19 5 -35 33 -18 25 -26 -37 -34 -29 -4 -60 -13 -68 -21 -8 -7 -24 -15 -34
-16 -10 -2 -28 -16 -40 -32 -17 -24 -20 -40 -18 -116 3 -94 -9 -123 -29 -74
-7 15 -18 42 -25 60 -8 17 -14 36 -14 42 0 6 -11 18 -25 27 -14 9 -25 23 -25
31 0 7 -6 13 -12 12 -28 -3 -36 2 -42 26 -4 14 -10 25 -15 25 -13 0 -28 54
-35 125 -10 93 11 350 30 387 24 46 41 60 63 53 11 -3 22 -1 25 4 4 6 12 8 19
5 13 -5 77 49 77 64 0 5 8 17 18 28 10 11 27 32 36 47 18 26 37 40 101 70 101
49 179 49 298 2z m-178 -735 c17 -19 17 -19 -9 -7 -14 7 -26 15 -26 20 0 13
17 7 35 -13z m75 -60 c0 -5 -4 -10 -10 -10 -5 0 -10 5 -10 10 0 6 5 10 10 10
6 0 10 -4 10 -10z m-207 -20 c3 -11 1 -20 -4 -20 -5 0 -9 9 -9 20 0 11 2 20 4
20 2 0 6 -9 9 -20z m211 -16 c22 -8 21 -44 -1 -44 -10 -1 -2 -8 17 -16 19 -8
43 -14 55 -13 39 3 44 -1 56 -43 16 -55 14 -53 40 -29 32 29 36 27 41 -21 4
-32 -2 -59 -23 -106 -15 -34 -26 -69 -23 -76 3 -7 -1 -18 -8 -24 -23 -18 -98
-40 -104 -30 -3 5 -17 2 -32 -8 -16 -10 -27 -13 -29 -7 -2 6 -13 9 -23 6 -11
-3 -28 -2 -37 2 -10 4 -29 9 -43 11 -48 8 -134 41 -141 55 -16 31 -49 151 -49
177 0 15 5 44 11 66 l11 38 23 -22 23 -21 5 23 c8 29 45 46 91 42 20 -1 34 2
30 7 -3 5 6 9 19 9 14 0 27 7 31 15 6 16 33 20 60 9z m-494 -34 c0 -5 -4 -10
-10 -10 -5 0 -10 5 -10 10 0 6 5 10 10 10 6 0 10 -4 10 -10z m930 -30 c0 -5
-5 -10 -11 -10 -5 0 -7 5 -4 10 3 6 8 10 11 10 2 0 4 -4 4 -10z"/>
<path d="M1799 2951 c-18 -17 -36 -31 -40 -31 -9 0 -41 -81 -35 -87 10 -10 50
11 82 44 32 33 38 35 78 29 24 -4 52 -13 62 -21 17 -13 17 -16 4 -25 -8 -6
-32 -8 -53 -4 -42 7 -127 -28 -127 -52 0 -15 63 -46 68 -33 2 4 34 5 72 3 56
-3 71 -1 78 13 9 14 11 15 32 0 l22 -15 -28 -5 c-19 -3 -12 -5 20 -6 35 -1 47
2 43 12 -3 8 4 13 22 12 41 0 39 35 -3 79 -20 20 -36 41 -36 47 0 14 -57 36
-121 48 -30 6 -66 13 -80 16 -20 5 -33 0 -60 -24z m91 -151 c0 -5 -5 -10 -11
-10 -5 0 -7 5 -4 10 3 6 8 10 11 10 2 0 4 -4 4 -10z"/>
<path d="M2348 2894 c-10 -3 -18 -9 -18 -14 0 -15 -50 -60 -67 -60 -12 0 -14
-7 -8 -37 9 -49 21 -60 75 -67 28 -4 38 -3 25 2 -19 9 -19 9 2 20 29 16 33 15
33 -7 0 -14 10 -21 38 -27 l37 -8 -45 -6 -45 -6 37 -17 c24 -11 61 -17 100
-16 35 1 68 0 73 -1 6 -1 19 -2 30 -1 15 1 16 4 7 13 -18 18 -15 28 8 28 31 0
26 57 -9 111 -59 89 -56 87 -161 93 -52 3 -103 3 -112 0z m194 -101 c41 -28
77 -83 53 -83 -7 0 -18 7 -26 16 -16 20 -61 43 -112 58 -44 12 -50 28 -15 37
31 9 56 2 100 -28z m-232 -47 c0 -11 -19 -15 -25 -6 -3 5 1 10 9 10 9 0 16 -2
16 -4z"/>
<path d="M1840 2744 c0 -20 41 -33 100 -33 101 1 120 16 22 18 -46 1 -92 6
-103 11 -10 6 -19 8 -19 4z"/>
<path d="M1943 2743 c9 -2 23 -2 30 0 6 3 -1 5 -18 5 -16 0 -22 -2 -12 -5z"/>
<path d="M2518 2623 c12 -2 30 -2 40 0 9 3 -1 5 -23 4 -22 0 -30 -2 -17 -4z"/>
<path d="M2277 2246 c-3 -8 -2 -18 3 -21 13 -8 24 15 12 27 -6 6 -11 4 -15 -6z"/>
<path d="M2045 2127 c7 -17 104 -82 112 -74 3 4 12 2 19 -4 8 -7 19 -7 31 0
10 5 39 17 65 26 59 21 70 35 26 35 -18 0 -49 4 -68 9 -19 5 -70 12 -112 15
-59 4 -76 3 -73 -7z"/>
<path d="M1497 2767 c-8 -20 4 -33 38 -41 l30 -8 -29 31 c-34 36 -32 35 -39
18z"/>
<path d="M4170 1740 c-8 -11 -24 -20 -35 -21 -11 0 -15 -3 -8 -5 16 -7 -50
-74 -74 -75 -10 0 -13 -3 -6 -5 8 -4 0 -18 -22 -40 -19 -19 -42 -34 -52 -35
-10 0 -13 -3 -6 -5 8 -4 0 -18 -22 -40 -19 -19 -42 -34 -52 -35 -10 0 -13 -3
-6 -5 16 -7 -50 -74 -74 -75 -10 0 -13 -3 -6 -5 8 -4 0 -18 -22 -40 -19 -19
-42 -34 -52 -35 -10 0 -13 -3 -6 -5 16 -7 -50 -74 -74 -75 -10 0 -13 -3 -6 -5
16 -7 -50 -74 -74 -75 -10 0 -13 -3 -6 -6 8 -3 4 -13 -13 -30 -25 -24 -25 -26
-7 -47 10 -11 23 -24 28 -28 7 -5 6 -8 0 -8 -6 0 -31 21 -55 46 -70 71 -122
106 -300 198 -140 72 -324 179 -361 211 -17 14 -42 25 -56 25 -18 0 -38 13
-63 40 -33 36 -42 40 -85 40 l-48 0 41 -30 c23 -17 42 -36 42 -43 0 -31 -52
-117 -99 -165 -58 -57 -158 -121 -242 -154 -65 -25 -205 -29 -289 -9 -94 23
-221 81 -325 150 -155 101 -230 180 -253 263 -12 44 -4 57 53 87 l40 20 -51 1
c-38 0 -58 -6 -84 -25 -26 -19 -46 -25 -87 -25 -29 0 -61 -4 -71 -9 -23 -13
-222 -73 -347 -106 -166 -43 -245 -76 -324 -137 -24 -18 -56 -40 -70 -49 -14
-8 -38 -37 -55 -65 -44 -76 -126 -241 -126 -257 0 -21 93 -152 197 -275 214
-253 497 -452 833 -585 106 -42 331 -107 372 -107 17 0 17 22 12 337 -5 351
-18 612 -35 722 -5 35 -8 65 -6 67 2 2 53 -19 113 -47 60 -28 152 -62 204 -76
82 -21 109 -24 195 -19 55 3 141 16 191 29 49 13 94 22 100 20 5 -2 9 -202 9
-517 -1 -349 3 -513 10 -510 5 1 57 15 115 29 194 48 432 154 620 276 142 92
380 296 380 326 0 7 4 13 10 13 5 0 43 42 84 93 216 269 341 534 430 910 8 32
-4 35 -24 7z m-572 -746 c-4 -3 -12 5 -18 18 -12 22 -12 22 6 6 10 -10 15 -20
12 -24z"/>
<path d="M2525 1633 c3 -62 5 -65 15 -23 6 24 5 37 -3 42 -9 6 -8 8 1 8 7 0
10 5 7 10 -14 23 -22 7 -20 -37z"/>
<path d="M2088 633 c7 -3 16 -2 19 1 4 3 -2 6 -13 5 -11 0 -14 -3 -6 -6z"/>
<path d="M2240 630 c0 -5 5 -10 11 -10 5 0 7 5 4 10 -3 6 -8 10 -11 10 -2 0
-4 -4 -4 -10z"/>
<path d="M2080 570 c0 -5 7 -10 15 -10 8 0 15 5 15 10 0 6 -7 10 -15 10 -8 0
-15 -4 -15 -10z"/>
<path d="M2240 559 c0 -5 5 -7 10 -4 6 3 10 8 10 11 0 2 -4 4 -10 4 -5 0 -10
-5 -10 -11z"/>
<path d="M2010 510 c0 -5 5 -10 10 -10 6 0 10 5 10 10 0 6 -4 10 -10 10 -5 0
-10 -4 -10 -10z"/>
<path d="M2080 500 c0 -5 7 -10 15 -10 8 0 15 5 15 10 0 6 -7 10 -15 10 -8 0
-15 -4 -15 -10z"/>
<path d="M2015 440 c3 -5 10 -10 16 -10 5 0 9 5 9 10 0 6 -7 10 -16 10 -8 0
-12 -4 -9 -10z"/>
<path d="M2090 429 c0 -5 5 -7 10 -4 6 3 10 8 10 11 0 2 -4 4 -10 4 -5 0 -10
-5 -10 -11z"/>
<path d="M2160 430 c0 -5 7 -10 16 -10 8 0 12 5 9 10 -3 6 -10 10 -16 10 -5 0
-9 -4 -9 -10z"/>
<path d="M2245 430 c-3 -5 -1 -10 4 -10 6 0 11 5 11 10 0 6 -2 10 -4 10 -3 0
-8 -4 -11 -10z"/>
<path d="M2016 382 c-3 -6 -1 -14 5 -17 15 -10 25 3 12 16 -7 7 -13 7 -17 1z"/>
<path d="M2165 360 c3 -5 10 -10 16 -10 5 0 9 5 9 10 0 6 -7 10 -16 10 -8 0
-12 -4 -9 -10z"/>
<path d="M2245 360 c3 -5 8 -10 11 -10 2 0 4 5 4 10 0 6 -5 10 -11 10 -5 0 -7
-4 -4 -10z"/>
<path d="M2251 196 l-1 -39 -105 6 c-72 5 -105 3 -105 -4 0 -6 15 -9 34 -8 19
2 38 0 42 -4 4 -4 36 -7 70 -7 59 0 64 2 70 24 3 13 4 35 1 47 -3 16 -5 10 -6
-15z"/>
<path d="M2258 100 c-2 -22 0 -40 4 -40 5 0 8 18 8 40 0 22 -2 40 -4 40 -2 0
-6 -18 -8 -40z"/>
</g>
</svg>
